<svg xmlns="http://www.w3.org/2000/svg" xmlns:xlink="http://www.w3.org/1999/xlink" version="1.1" width="66" height="66" enable-background="new 0 0 66 66" xml:space="preserve" style=""><rect id="backgroundrect" width="100%" height="100%" x="0" y="0" fill="none" stroke="none"/>

<g class="currentLayer" style=""><title>Layer 1</title>
	<circle fill="#053A51" cx="32.10597229003906" cy="31.39211654663086" r="29.66280174255371" id="svg_2" class="" transform="rotate(0.19837281107902527 32.10597610473583,31.392108917237454) "/><path fill="#001319" d="M2.390742405379684,31.855645768344417 c0,16.707 13.281629557013511,30.25 29.663776844501495,30.25 c16.380186175704,0 29.661815732717514,-13.543 29.661815732717514,-30.25 " class="" id="svg_76"/>
	
	
		<g class="" id="svg_1">
			<polygon fill="#FFC239" points="51.76295852661133,32.10305930674076 44.246158599853516,23.373977199196815 44.246158599853516,12.182717815041542 61.4043083190918,32.10305930674076 44.246158599853516,52.015599742531776 44.246158599853516,40.82628013193607 " id="svg_11"/>
		</g><g class="" transform="rotate(0.8554553985595703 11.605508804321131,31.960895538330128) " id="svg_60">
			<polygon fill="#FFC239" points="12.706386342644691,31.754283905029297 20.496368184685707,22.98015022277832 20.496368184685707,11.731101036071777 2.714617982506752,31.754283905029297 20.496368184685707,51.76964569091797 20.496368184685707,40.52255630493164 " id="svg_62"/>
		</g>
		<g class="" transform="rotate(0.18454566597938538 52.80089569090974,37.68842315673755) " id="svg_20">
			<polyline fill="#EFA91B" points="61.437414305168204,32.127342875057366 44.164377348381095,51.930687601619866 44.164377348381095,40.8027426553308 51.7315045761643,32.127342875057366 44.164377348381095,23.446156199031975 " id="svg_24"/>
		</g><g class="" transform="rotate(0.8305089473724365 11.67719078064081,37.39218902587883) " id="svg_19">
			<polyline fill="#EFA91B" points="2.6804089695215225,31.62385368347168 20.673972859978676,52.16526794433594 20.673972859978676,40.622581481933594 12.79119373857975,31.62385368347168 20.673972859978676,22.61911392211914 " id="svg_21"/>
		</g>
		
			
		
	
</g></svg>