<svg xmlns="http://www.w3.org/2000/svg" xmlns:xlink="http://www.w3.org/1999/xlink" version="1.1" width="66" height="66" enable-background="new 0 0 66 66" xml:space="preserve" style=""><rect id="backgroundrect" width="100%" height="100%" x="0" y="0" fill="none" stroke="none"/>

<g class="currentLayer" style=""><title>Layer 1</title>
	<circle fill="#053A51" cx="31.991926193237305" cy="32.41741180419922" r="29.66280174255371" id="svg_2" class=""/>
	<path fill="#001319" d="M2.2730558207878175,31.694273568689837 c0,16.707 13.281629557013511,30.25 29.663776844501495,30.25 c16.380186175704,0 29.661815732717514,-13.543 29.661815732717514,-30.25 " id="svg_3" class=""/>
	
		<g id="svg_5" class="">
			<polygon fill="#FFC239" points="47.155487060546875,32.842453099787235 39.36518096923828,23.973373509943485 39.36518096923828,12.602638341486454 57.147613525390625,32.842453099787235 39.36518096923828,53.074325658380985 39.36518096923828,41.70556650310755 " id="svg_6"/>
		</g><g class="" id="svg_15">
			<polygon fill="#FFC239" points="16.248151779174805,32.63383474200964 24.038122177124023,23.905830286443233 24.038122177124023,12.715934656560421 6.256427764892578,32.63383474200964 24.038122177124023,52.543960474431515 24.038122177124023,41.35601034015417 " id="svg_17"/>
		</g>
		<g id="svg_7" class="" transform="rotate(-0.12827634811401367 48.14898681640382,38.627750396728885) ">
			<polyline fill="#EFA91B" points="56.97731394384755,32.87788448328985 39.32066340063466,53.35354671473516 39.32066340063466,41.84781703944219 47.055850931152236,32.87788448328985 39.32066340063466,23.901951408338675 " id="svg_8"/>
		</g><g class="" transform="rotate(0.015923256054520607 15.079861640900047,38.27701568603425) " id="svg_19">
			<polyline fill="#EFA91B" points="6.170641817181604,32.68826330497237 23.989083208172815,52.59016073539229 23.989083208172815,41.40683401420088 16.183010973065393,32.68826330497237 23.989083208172815,23.96386755301924 " id="svg_21"/>
		</g>
		
			<rect x="-3.0584821701049805" y="-10.790379524230957" transform="matrix(0.6933510712265968,0.7071,0.6933510712265968,-0.7071,32.514426152793796,26.0954) " fill="#FFC239" width="12.661999702453613" height="12.661999702453613" id="svg_9" class=""/>
		<polyline fill="#EFA91B" points="40.52088737487793,31.569988250732422 31.74197892844677,40.52298355102539 22.963064193725586,31.569988250732422 " id="svg_10" class=""/>
	
</g></svg>